#!OML:ASF H:\MichaelJackson\Top Level 1\Subject 1\Session 1\male.ASF
:FULLY-SPECIFIED
:DEGREES
736
root 1.59389 15.162 33.7629 -356.448 -4.8516 4.55454
lowerback -0.781792 -2.80625 1.16355
upperback 0.0908278 -3.74977 -4.56522
thorax 0.149052 -1.88368 -5.38884
lowerneck -5.92904 1.86324 6.87807
upperneck 3.5321 1.8386 1.76226
head 2.19197 1.06159 -0.549934
rclavicle -3.23025e-015 -3.26007e-014
rhumerus 7.99649 -22.5106 4.15073
rradius 24.4973
rwrist -8.12037
rhand -33.5044 -44.3166
rfingers 7.12502
rthumb -6.70117 -434.191
lclavicle -3.23025e-015 -3.26007e-014
lhumerus -56.1362 -38.1321 114.079
lradius 55.1752
lwrist 32.0283
lhand 24.8156 28.017
lfingers 7.12502
lthumb 48.9918 49.7535
rfemur -31.4984 -18.6924 -5.98174
rtibia 53.958
rfoot -20.271 3.92587
rtoes -33.553
lfemur 6.86715 -18.7142 -0.0228466
ltibia 8.92394
lfoot -13.8742 23.8771
ltoes -30.896
737
root 1.59571 15.16 33.7694 -356.494 -4.94474 4.58471
lowerback -0.744855 -2.7739 1.07301
upperback 0.100066 -3.70566 -4.56198
thorax 0.148347 -1.86133 -5.33249
lowerneck -5.96888 1.85596 6.89899
upperneck 3.5843 1.82035 1.79117
head 2.21607 1.05541 -0.544626
rclavicle 1.55549e-014 1.59028e-015
rhumerus 7.93084 -22.4243 4.02147
rradius 24.4894
rwrist -7.93565
rhand -33.5355 -44.2504
rfingers 7.12502
rthumb -6.73116 -434.123
lclavicle 1.55549e-014 1.59028e-015
lhumerus -56.1675 -38.361 114.248
lradius 55.1043
lwrist 31.7918
lhand 24.9392 27.8408
lfingers 7.12502
lthumb 49.1053 49.521
rfemur -31.5126 -18.4566 -6.03353
rtibia 54.0335
rfoot -20.2433 3.78807
rtoes -33.4679
lfemur 7.00552 -18.7291 -0.190803
ltibia 9.00215
lfoot -13.9813 24.0053
ltoes -30.8324
738
root 1.59667 15.1579 33.7749 -356.543 -5.01934 4.64483
lowerback -0.69293 -2.75398 0.933038
upperback 0.1109 -3.67793 -4.56213
thorax 0.142009 -1.8473 -5.25093
lowerneck -6.00143 1.84526 6.91326
upperneck 3.60812 1.79924 1.82857
head 2.2291 1.04706 -0.535664
rclavicle -5.36719e-015 4.77083e-015
rhumerus 7.87852 -22.3577 3.89409
rradius 24.4719
rwrist -7.74615
rhand -33.5639 -44.2411
rfingers 7.12502
rthumb -6.75857 -434.113
lclavicle -5.36719e-015 4.77083e-015
lhumerus -56.1762 -38.5224 114.39
lradius 55.0102
lwrist 31.4036
lhand 25.1184 27.5535
lfingers 7.12502
lthumb 49.2698 49.1513
rfemur -31.5238 -18.2168 -6.12188
rtibia 54.1219
rfoot -20.211 3.64199
rtoes -33.3638
lfemur 7.13707 -18.7643 -0.369104
ltibia 9.04784
lfoot -14.0611 24.1227
ltoes -30.7748
739
root 1.5971 15.1558 33.78 -356.583 -5.06576 4.71192
lowerback -0.642052 -2.74771 0.777503
upperback 0.12328 -3.66839 -4.56401
thorax 0.136832 -1.84237 -5.16249
lowerneck -6.02897 1.83183 6.9258
upperneck 3.60549 1.77543 1.87686
head 2.23214 1.03679 -0.523104
rclavicle -6.60959e-015 -9.54166e-015
rhumerus 7.83962 -22.3395 3.75712
rradius 24.4431
rwrist -7.54665
rhand -33.5808 -44.2591
rfingers 7.12502
rthumb -6.77494 -434.131
lclavicle -6.60959e-015 -9.54166e-015
lhumerus -56.1628 -38.6237 114.498
lradius 54.9045
lwrist 30.9612
lhand 25.3216 27.2384
lfingers 7.12502
lthumb 49.4563 48.742
rfemur -31.5341 -17.9903 -6.21981
rtibia 54.2167
rfoot -20.172 3.49445
rtoes -33.2382
lfemur 7.24009 -18.8253 -0.523009
ltibia 9.07091
lfoot -14.1181 24.2279
ltoes -30.7288
740
root 1.59732 15.154 33.7849 -356.605 -5.07838 4.76399
lowerback -0.607479 -2.75341 0.640661
upperback 0.136095 -3.67487 -4.56637
thorax 0.138488 -1.8454 -5.08607
lowerneck -6.04833 1.81648 6.93749
upperneck 3.57703 1.74993 1.94152
head 2.2248 1.02527 -0.505311
rclavicle -6.83322e-014 -2.54444e-014
rhumerus 7.79797 -22.3386 3.62598
rradius 24.4125
rwrist -7.39509
rhand -33.5919 -44.2979
rfingers 7.12502
rthumb -6.78562 -434.169
lclavicle -6.83322e-014 -2.54444e-014
lhumerus -56.1354 -38.6815 114.571
lradius 54.7976
lwrist 30.5596
lhand 25.5118 26.9629
lfingers 7.12502
lthumb 49.6306 48.3774
rfemur -31.5444 -17.7894 -6.30139
rtibia 54.3108
rfoot -20.1287 3.34701
rtoes -33.0977
lfemur 7.29744 -18.9137 -0.624414
ltibia 9.08485
lfoot -14.1599 24.3222
ltoes -30.6945
741
root 1.59762 15.1526 33.79 -356.601 -5.05664 4.783
lowerback -0.601142 -2.76759 0.548987
upperback 0.149718 -3.69258 -4.56582
thorax 0.153138 -1.85389 -5.03376
lowerneck -6.06749 1.7976 6.95315
upperneck 3.52989 1.7198 2.0126
head 2.21107 1.01106 -0.486374
rclavicle -6.16232e-014 1.27222e-014
rhumerus 7.7456 -22.3573 3.50921
rradius 24.3841
rwrist -7.2866
rhand -33.5921 -44.3357
rfingers 7.12502
rthumb -6.78578 -434.207
lclavicle -6.16232e-014 1.27222e-014
lhumerus -56.0951 -38.7153 114.615
lradius 54.695
lwrist 30.2687
lhand 25.6616 26.7818
lfingers 7.12502
lthumb 49.7678 48.1256
rfemur -31.5574 -17.6216 -6.34388
rtibia 54.3989
rfoot -20.0818 3.19669
rtoes -32.9557
lfemur 7.29815 -19.0275 -0.654397
ltibia 9.10467
lfoot -14.1942 24.4103
ltoes -30.6777
742
root 1.59826 15.1518 33.7955 -356.568 -5.00451 4.75649
lowerback -0.626561 -2.78563 0.52214
upperback 0.162539 -3.71542 -4.56023
thorax 0.18056 -1.86477 -5.01457
lowerneck -6.07964 1.77456 6.96465
upperneck 3.46353 1.68526 2.09628
head 2.18933 0.994272 -0.46295
rclavicle 3.83157e-014 2.78299e-014
rhumerus 7.67809 -22.3884 3.41575
rradius 24.3575
rwrist -7.20545
rhand -33.5738 -44.3593
rfingers 7.12502
rthumb -6.76817 -434.231
lclavicle 3.83157e-014 2.78299e-014
lhumerus -56.0505 -38.748 114.642
lradius 54.5985
lwrist 30.1268
lhand 25.7567 26.7065
lfingers 7.12502
lthumb 49.8549 48.0051
rfemur -31.5741 -17.4861 -6.33183
rtibia 54.4766
rfoot -20.0314 3.04042
rtoes -32.8225
lfemur 7.24108 -19.1614 -0.604727
ltibia 9.14097
lfoot -14.227 24.4955
ltoes -30.6801
743
root 1.59938 15.1512 33.8013 -356.51 -4.92912 4.69204
lowerback -0.682785 -2.80267 0.553569
upperback 0.173694 -3.73693 -4.55096
thorax 0.220191 -1.87482 -5.02617
lowerneck -6.0769 1.7478 6.97388
upperneck 3.37873 1.64786 2.18515
head 2.15861 0.975422 -0.437715
rclavicle 5.26779e-014 -1.51076e-014
rhumerus 7.58518 -22.4146 3.36213
rradius 24.3305
rwrist -7.12553
rhand -33.5452 -44.3228
rfingers 7.12502
rthumb -6.7405 -434.195
lclavicle 5.26779e-014 -1.51076e-014
lhumerus -56.0069 -38.7914 114.662
lradius 54.5077
lwrist 30.1285
lhand 25.8034 26.7341
lfingers 7.12502
lthumb 49.8978 48.0104
rfemur -31.5956 -17.388 -6.27239
rtibia 54.5424
rfoot -19.9817 2.87959
rtoes -32.7147
lfemur 7.13332 -19.3092 -0.491932
ltibia 9.19917
lfoot -14.2589 24.5841
ltoes -30.7018
744
root 1.60095 15.1509 33.8074 -356.436 -4.83972 4.59969
lowerback -0.762777 -2.81501 0.630312
upperback 0.184895 -3.75224 -4.53828
thorax 0.271059 -1.88152 -5.06121
lowerneck -6.064 1.71926 6.98188
upperneck 3.28443 1.60986 2.26907
head 2.12298 0.955686 -0.413969
rclavicle 1.98785e-016 7.95139e-016
rhumerus 7.47243 -22.4333 3.35143
rradius 24.2999
rwrist -7.0204
rhand -33.4993 -44.2625
rfingers 7.12502
rthumb -6.69627 -434.137
lclavicle 1.98785e-016 7.95139e-016
lhumerus -55.965 -38.8534 114.68
lradius 54.4223
lwrist 30.2428
lhand 25.8087 26.8332
lfingers 7.12502
lthumb 49.9026 48.1069
rfemur -31.6176 -17.3197 -6.17773
rtibia 54.5954
rfoot -19.9355 2.71798
rtoes -32.6326
lfemur 6.99082 -19.4645 -0.336587
ltibia 9.27747
lfoot -14.2997 24.6727
ltoes -30.7249
745
root 1.60288 15.1506 33.8137 -356.36 -4.74693 4.493
lowerback -0.849861 -2.82112 0.732975
upperback 0.194793 -3.75961 -4.52337
thorax 0.323754 -1.88416 -5.10897
lowerneck -6.03565 1.69183 6.98704
upperneck 3.18636 1.57567 2.34581
head 2.08351 0.937311 -0.39199
rclavicle 3.58309e-014 3.18055e-014
rhumerus 7.348 -22.4351 3.37959
rradius 24.2666
rwrist -6.8781
rhand -33.4519 -44.1586
rfingers 7.12502
rthumb -6.65051 -434.034
lclavicle 3.58309e-014 3.18055e-014
lhumerus -55.9283 -38.9253 114.699
lradius 54.3432
lwrist 30.4194
lhand 25.7985 26.9732
lfingers 7.12502
lthumb 49.8933 48.2518
rfemur -31.6333 -17.2733 -6.06527
rtibia 54.6356
rfoot -19.8973 2.56184
rtoes -32.5756
lfemur 6.83703 -19.6211 -0.164526
ltibia 9.36893
lfoot -14.349 24.7616
ltoes -30.7427
746
root 1.60501 15.1502 33.8198 -356.293 -4.65995 4.39067
lowerback -0.930686 -2.81964 0.837163
upperback 0.205246 -3.75717 -4.50998
thorax 0.37423 -1.88183 -5.15887
lowerneck -5.99218 1.6676 6.99135
upperneck 3.08895 1.54795 2.4088
head 2.04192 0.921634 -0.374095
rclavicle -3.47376e-014 -1.98785e-014
rhumerus 7.22047 -22.4292 3.43618
rradius 24.2288
rwrist -6.6866
rhand -33.4075 -44.0232
rfingers 7.12502
rthumb -6.60762 -433.9
lclavicle -3.47376e-014 -1.98785e-014
lhumerus -55.8965 -39.0019 114.715
lradius 54.2718
lwrist 30.6085
lhand 25.7918 27.1125
lfingers 7.12502
lthumb 49.8871 48.3943
rfemur -31.6356 -17.2393 -5.95944
rtibia 54.6634
rfoot -19.87 2.41903
rtoes -32.5458
lfemur 6.69687 -19.775 -0.00609893
ltibia 9.46153
lfoot -14.3955 24.854
ltoes -30.7611
747
root 1.60714 15.1496 33.8256 -356.25 -4.58565 4.30491
lowerback -0.98911 -2.81104 0.925815
upperback 0.216661 -3.74552 -4.50112
thorax 0.414739 -1.87499 -5.20346
lowerneck -5.94233 1.64965 6.99919
upperneck 3.00778 1.52913 2.45551
head 2.00509 0.910452 -0.361659
rclavicle -4.35338e-014 -2.38542e-014
rhumerus 7.09557 -22.4067 3.51169
rradius 24.1914
rwrist -6.47107
rhand -33.3796 -43.8877
rfingers 7.12502
rthumb -6.58071 -433.765
lclavicle -4.35338e-014 -2.38542e-014
lhumerus -55.8713 -39.0716 114.723
lradius 54.2142
lwrist 30.7727
lhand 25.8032 27.2249
lfingers 7.12502
lthumb 49.8975 48.5013
rfemur -31.6156 -17.2066 -5.87768
rtibia 54.6791
rfoot -19.8559 2.29568
rtoes -32.5319
lfemur 6.59338 -19.924 0.116939
ltibia 9.54367
lfoot -14.4297 24.9527
ltoes -30.7846
